<?xml version="1.0" standalone="no"?><!DOCTYPE svg PUBLIC "-//W3C//DTD SVG 1.1//EN" "http://www.w3.org/Graphics/SVG/1.1/DTD/svg11.dtd"><svg t="1519656199401" class="icon" style="" viewBox="0 0 1024 1024" version="1.1" xmlns="http://www.w3.org/2000/svg" p-id="1748" xmlns:xlink="http://www.w3.org/1999/xlink" width="32" height="32"><defs><style type="text/css"></style></defs><path d="M896 213.322667H768L682.666667 85.333333H341.333333l-85.333333 128H128C57.28 213.333333 0 271.296 0 341.994667V810.666667c0 70.72 57.28 128 128 128h768c70.72 0 128-56.629333 128-127.338667V342.656c0-70.72-57.28-129.333333-128-129.333333z m42.666667 598.005333C938.666667 834.912 919.925333 853.333333 896 853.333333H128c-23.530667 0-42.666667-19.136-42.666667-42.666666V341.994667C85.333333 318.112 104.469333 298.666667 128 298.666667h173.664l85.333333-128H638.506667l83.818666 128H896c23.125333 0 42.666667 20.149333 42.666667 44v468.661333zM512 341.333333c-117.824 0-213.333333 95.52-213.333333 213.333334s95.52 213.333333 213.333333 213.333333c117.824 0 213.333333-95.509333 213.333333-213.333333s-95.509333-213.333333-213.333333-213.333334z m0 341.333334c-70.581333 0-128-57.418667-128-128s57.408-128 128-128c70.581333 0 128 57.418667 128 128s-57.429333 128-128 128z" p-id="1749"></path></svg>